Coordinates
version=1
nRows=19
nColumns=24
inDegrees=yes

Units are S.I. units (second, meters, Newtons, ...)
Angles are in degrees.

endheader
time	pelvis_tilt	pelvis_list	pelvis_rotation	pelvis_tx	pelvis_ty	pelvis_tz	hip_flexion_r	hip_adduction_r	hip_rotation_r	knee_angle_r	ankle_angle_r	subtalar_angle_r	mtp_angle_r	hip_flexion_l	hip_adduction_l	hip_rotation_l	knee_angle_l	ankle_angle_l	subtalar_angle_l	mtp_angle_l	lumbar_extension	lumbar_bending	lumbar_rotation
      5.73000000	     14.49734216	     -6.87910864	      3.46707448	      1.53307374	      0.91702272	     -0.23748071	    -32.87347416	     11.46556485	     -1.57842149	     -9.82392427	     22.97601948	     12.21147990	      0.00000000	      7.60096502	     -3.80365413	      9.30722459	     -2.10505808	     10.43863675	     -0.03071374	      0.00000000	    -31.63445500	      6.57511285	      2.59619281
      5.73500000	     14.47753120	     -6.48519834	      3.33337976	      1.54016932	      0.91673088	     -0.23727687	    -33.01104086	     10.96595448	     -1.83236301	    -10.47743634	     22.75334664	     12.78790370	      0.00000000	      7.55522160	     -3.31857022	      9.30048857	     -2.52558352	     10.28941234	     -0.44936705	      0.00000000	    -31.60189398	      6.04691737	      2.48203074
      5.74000000	     14.50497482	     -6.02753075	      3.23827343	      1.54730326	      0.91650930	     -0.23713433	    -33.18653130	     10.42080348	     -2.16690241	    -11.14838006	     22.51740181	     13.45422414	      0.00000000	      7.46967061	     -2.75835400	      9.35363236	     -3.04926701	     10.17687372	     -0.91212268	      0.00000000	    -31.61306796	      5.47044267	      2.34076954
      5.74500000	     14.48573165	     -5.55001031	      3.11866789	      1.55447396	      0.91631582	     -0.23697541	    -33.27840738	      9.84286905	     -2.49351225	    -11.88971879	     22.23418183	     14.07564675	      0.00000000	      7.42860214	     -2.17485830	      9.37674168	     -3.63669679	     10.03702538	     -1.36944510	      0.00000000	    -31.57164193	      4.86279205	      2.19742786
      5.75000000	     14.40905000	     -5.05420286	      2.97455203	      1.56168546	      0.91614366	     -0.23678051	    -33.28062105	      9.23663574	     -2.77346048	    -12.68601372	     21.89708022	     14.62922072	      0.00000000	      7.44795017	     -1.57122934	      9.35137720	     -4.29025886	      9.85465247	     -1.79705877	      0.00000000	    -31.46223214	      4.22633517	      2.04463750
      5.75500000	     14.36029492	     -4.52406059	      2.85776423	      1.56892672	      0.91601301	     -0.23666388	    -33.28554730	      8.59972170	     -3.14521102	    -13.53387175	     21.54109583	     15.28776765	      0.00000000	      7.43794705	     -0.92376055	      9.38803073	     -4.99985029	      9.70063038	     -2.26373875	      0.00000000	    -31.37855832	      3.56881336	      1.88524910
      5.76000000	     14.37866218	     -3.95884245	      2.81491703	      1.57616964	      0.91594026	     -0.23668197	    -33.34132158	      7.95606114	     -3.63610130	    -14.41313311	     21.14440054	     16.04391391	      0.00000000	      7.36235632	     -0.22714249	      9.55068786	     -5.76165656	      9.57804856	     -2.76298689	      0.00000000	    -31.36695274	      2.91227939	      1.69231020
      5.76500000	     14.29193320	     -3.40321055	      2.68331872	      1.58345262	      0.91586996	     -0.23656521	    -33.24339366	      7.27873022	     -3.97503510	    -15.37686292	     20.69544325	     16.66360346	      0.00000000	      7.38404301	      0.44841607	      9.55683701	     -6.54478897	      9.38744207	     -3.18462302	      0.00000000	    -31.23733690	      2.22506247	      1.51565294
      5.77000000	     14.23742908	     -2.82629243	      2.60459800	      1.59077257	      0.91582945	     -0.23656786	    -33.15301953	      6.59130167	     -4.43641911	    -16.39125498	     20.19459588	     17.37054334	      0.00000000	      7.36177316	      1.15644205	      9.67650265	     -7.34145594	      9.22907579	     -3.63655924	      0.00000000	    -31.13541162	      1.54277212	      1.35345132
      5.77500000	     14.17332304	     -2.24276219	      2.54132769	      1.59810532	      0.91581757	     -0.23661279	    -33.03121459	      5.89831077	     -4.88382679	    -17.43452382	     19.63080514	     18.08080993	      0.00000000	      7.35139680	      1.87663801	      9.79587148	     -8.17215131	      9.04390246	     -4.06854461	      0.00000000	    -31.02066381	      0.86304940	      1.19042539
      5.78000000	     14.03680616	     -1.66570898	      2.40468823	      1.60553107	      0.91581953	     -0.23647595	    -32.79139849	      5.18129169	     -5.19426126	    -18.55719572	     18.98309298	     18.61257169	      0.00000000	      7.38097338	      2.56634743	      9.79694572	     -8.95860186	      8.86811079	     -4.37105526	      0.00000000	    -30.80861510	      0.13461027	      1.08433476
      5.78500000	     13.99029470	     -1.09343822	      2.38140969	      1.61279632	      0.91585415	     -0.23670201	    -32.60653595	      4.48011895	     -5.73326469	    -19.73835002	     18.35491742	     19.42981138	      0.00000000	      7.33752789	      3.29061349	     10.00451975	     -9.79031179	      8.67288029	     -4.85804156	      0.00000000	    -30.72527014	     -0.48257390	      0.87429409
      5.79000000	     13.86036070	     -0.52827947	      2.24950552	      1.62017815	      0.91590110	     -0.23667719	    -32.29503396	      3.74039979	     -6.07821766	    -20.98508765	     17.64795175	     20.03489053	      0.00000000	      7.34291381	      3.97360712	     10.02058452	    -10.56606245	      8.51983141	     -5.15649224	      0.00000000	    -30.52712509	     -1.17366137	      0.77711418
      5.79500000	     13.74081646	      0.02044996	      2.13789803	      1.62754608	      0.91598703	     -0.23672168	    -31.95967532	      3.00945460	     -6.44121196	    -22.27602563	     16.87545341	     20.66294104	      0.00000000	      7.32290123	      4.64370619	     10.08079205	    -11.31955471	      8.36060045	     -5.46789364	      0.00000000	    -30.33802906	     -1.83069839	      0.69304863
      5.80000000	     13.64038972	      0.55344775	      2.08163912	      1.63484727	      0.91610661	     -0.23689360	    -31.60865462	      2.30249556	     -6.85506292	    -23.60985630	     16.03614269	     21.30284843	      0.00000000	      7.27291811	      5.30892725	     10.23389935	    -12.05100499	      8.17656599	     -5.82626049	      0.00000000	    -30.18072733	     -2.43289983	      0.58064114
      5.80500000	     13.51312434	      1.08062811	      1.95080523	      1.64221785	      0.91625158	     -0.23691366	    -31.18854266	      1.56158844	     -7.16677952	    -24.99983177	     15.16025852	     21.81986230	      0.00000000	      7.21580680	      5.94270190	     10.25617675	    -12.71785132	      8.07878433	     -6.04837294	      0.00000000	    -29.97387173	     -3.07339774	      0.52856190
      5.81000000	     13.39275800	      1.58268645	      1.82798222	      1.64952559	      0.91643386	     -0.23699322	    -30.73219639	      0.83084510	     -7.47230499	    -26.43628064	     14.23942246	     22.31984722	      0.00000000	      7.13620376	      6.55327258	     10.31252863	    -13.34568539	      7.97075339	     -6.30373628	      0.00000000	    -29.78087306	     -3.67304634	      0.49757029
      5.81500000	     13.27377331	      2.06684098	      1.70218489	      1.65680622	      0.91664899	     -0.23707796	    -30.23785203	      0.10491616	     -7.75321741	    -27.91115775	     13.28270179	     22.74815073	      0.00000000	      7.03393512	      7.14079215	     10.36946308	    -13.92495717	      7.88805586	     -6.53877197	      0.00000000	    -29.58753693	     -4.25120682	      0.47910700
      5.82000000	     13.15608780	      2.53299893	      1.56696330	      1.66405958	      0.91689882	     -0.23715316	    -29.70492563	     -0.61813512	     -8.00375669	    -29.42054210	     12.30069564	     23.09680372	      0.00000000	      6.90762864	      7.70350709	     10.41622777	    -14.45040588	      7.83574222	     -6.75261329	      0.00000000	    -29.39286646	     -4.81129816	      0.47998821
